HIERARCHY
ROOT Hips
{
	OFFSET 0.00000 0.00000 0.00000
	CHANNELS 6 Xposition Yposition Zposition Zrotation Yrotation Xrotation 
	JOINT LHipJoint
	{
		OFFSET 0 0 0
		CHANNELS 3 Zrotation Yrotation Xrotation
		JOINT LeftHip
		{
			OFFSET 1.81424 -1.42316 1.18090
			CHANNELS 3 Zrotation Yrotation Xrotation
			JOINT LeftKnee
			{
				OFFSET 2.15837 -5.93008 0.00000
				CHANNELS 3 Zrotation Yrotation Xrotation
				JOINT LeftAnkle
				{
					OFFSET 2.51759 -6.91701 0.00000
					CHANNELS 3 Zrotation Yrotation Xrotation
					JOINT LeftToe
					{
						OFFSET 0.18318 -0.50327 1.95113
						CHANNELS 3 Zrotation Yrotation Xrotation
						End Site
						{
							OFFSET 0.00000 -0.00000 1.01524
						}
					}
				}
			}
		}
	}
	JOINT RHipJoint
	{
		OFFSET 0 0 0
		CHANNELS 3 Zrotation Yrotation Xrotation
		JOINT RightHip
		{
			OFFSET -1.43917 -1.42316 1.18090
			CHANNELS 3 Zrotation Yrotation Xrotation
			JOINT RightKnee
			{
				OFFSET -2.25237 -6.18833 0.00000
				CHANNELS 3 Zrotation Yrotation Xrotation
				JOINT RightAnkle
				{
					OFFSET -2.46496 -6.77243 0.00000
					CHANNELS 3 Zrotation Yrotation Xrotation
					JOINT RightToe
					{
						OFFSET -0.26285 -0.72219 1.76148
						CHANNELS 3 Zrotation Yrotation Xrotation
						End Site
						{
							OFFSET -0.00000 -0.00000 0.95109
						}
					}
				}
			}
		}
	}
	JOINT lowerback
	{
		OFFSET 0 0 0
		CHANNELS 3 Zrotation Yrotation Xrotation
		JOINT Chest
		{
			OFFSET -0.08725 1.93754 -0.28890
			CHANNELS 3 Zrotation Yrotation Xrotation
			JOINT Chest2
			{
				OFFSET 0.01195 1.94849 0.05967
				CHANNELS 3 Zrotation Yrotation Xrotation
				JOINT lowerneck
				{
					OFFSET 0 0 0
					CHANNELS 3 Zrotation Yrotation Xrotation
					JOINT Neck
					{
						OFFSET 0.02762 1.60124 0.34160
						CHANNELS 3 Zrotation Yrotation Xrotation
						JOINT Head
						{
							OFFSET -0.04785 1.66713 -0.24070
							CHANNELS 3 Zrotation Yrotation Xrotation
							End Site
							{
								OFFSET -0.02188 1.68591 -0.11959
							}
						}
					}
				}
				JOINT LeftCollar
				{
					OFFSET 0 0 0
					CHANNELS 3 Zrotation Yrotation Xrotation
					JOINT LeftShoulder
					{
						OFFSET 2.59610 1.78696 -0.28854
CHANNELS 3 Zrotation Xrotation Yrotation
						JOINT LeftElbow
						{
OFFSET 0 -5.178530 0.000000
CHANNELS 3 Zrotation Xrotation Yrotation
							JOINT LeftWrist
							{
OFFSET 0 -3.403990 -0.000000
CHANNELS 3 Zrotation Xrotation Yrotation
								JOINT lhand
								{
									OFFSET 0 0 0
CHANNELS 3 Zrotation Xrotation Yrotation
									JOINT LFingers
									{
OFFSET 0 -0.708960 -0.000000
CHANNELS 3 Zrotation Xrotation Yrotation
										End Site
										{
OFFSET 0 -0.571590 -0.000000
										}
									}
								}
								JOINT LThumb
								{
OFFSET 0 0.000000 0.000000
CHANNELS 3 Zrotation Xrotation Yrotation
									End Site
									{
OFFSET 0 -0.580310 0.580310
									}
								}
							}
						}
					}
				}
				JOINT RightCollar
				{
					OFFSET 0 0 0
					CHANNELS 3 Zrotation Yrotation Xrotation
					JOINT RightShoulder
					{
						OFFSET -2.87749 1.55486 -0.73085
CHANNELS 3 Zrotation Xrotation Yrotation
						JOINT RightElbow
						{
OFFSET 0 -5.423510 -0.000000
CHANNELS 3 Zrotation Xrotation Yrotation
							JOINT RightWrist
							{
OFFSET 0 -3.420660 -0.000000
CHANNELS 3 Zrotation Xrotation Yrotation
								JOINT rhand
								{
									OFFSET 0 0 0
CHANNELS 3 Zrotation Xrotation Yrotation
									JOINT RFingers
									{
OFFSET 0 -0.743610 -0.000000
CHANNELS 3 Zrotation Xrotation Yrotation
										End Site
										{
OFFSET 0 -0.599520 -0.000000
										}
									}
								}
								JOINT RThumb
								{
OFFSET 0 0.000000 0.000000
CHANNELS 3 Zrotation Xrotation Yrotation
									End Site
									{
OFFSET 0 -0.608670 0.608670
									}
								}
							}
						}
					}
				}
			}
		}
	}
}
MOTION
Frames: 10
Frame Time: 0.008333333333333333
8.088230 14.948769 -0.427609 719.185052 80.937565 737.433312 0.000000 0.000000 0.000000 -8.624532 -2.664371 -60.320848 8.934272 16.765214 55.862554 0.439524 -7.382318 -12.124484 0.026901 -1.054600 -2.899071 0.000000 0.000000 0.000000 11.021833 1.810723 -40.557090 -10.368290 -17.611774 60.712243 -4.654650 2.290294 -40.493263 -0.780733 5.641100 -15.746537 -4.422234 2.910564 17.291524 -0.319292 3.126381 2.977478 1.443725 1.665816 -6.694523 3.764368 1.533279 -14.996389 -7.272741 2.266214 9.559068 -2.703711 0.726494 5.462735 0.000000 0.000000 0.000000 20.110300 -20.634413 -30.215380 46.720131 -51.583817 23.578943 20.733149 -40.164440 30.238319 0.000000 0.000000 0.000000 -7.125000 0.000000 0.000000 -5.970402 -1.800674 -6.188248 0.000000 0.000000 0.000000 -14.222936 -24.589452 18.316512 -25.795186 -37.005755 -8.764133 -11.522937 -20.634183 -27.364289 0.000000 0.000000 0.000000 7.125000 0.000000 0.000000 11.093334 2.584065 10.788607
8.213456 14.975936 -0.577719 716.502349 80.697162 735.016853 0.000000 0.000000 0.000000 -8.741628 -2.767986 -60.391134 9.119717 16.884125 56.503255 0.502793 -7.338970 -12.868159 0.006782 -0.529414 -1.454765 0.000000 0.000000 0.000000 10.852815 1.754296 -39.868697 -10.049676 -17.437661 59.654303 -4.587014 2.464284 -40.146967 -0.767034 5.591871 -15.604950 -4.416725 2.862873 17.316786 -0.327224 3.063460 2.994346 1.446357 1.634841 -6.685407 4.003219 1.599169 -14.949416 -7.517296 2.343466 9.619329 -2.813995 0.755779 5.484434 0.000000 0.000000 0.000000 19.821851 -21.358380 -30.092090 45.525453 -51.022858 22.646656 20.513209 -40.190816 30.064119 0.000000 0.000000 0.000000 -7.125000 0.000000 0.000000 -6.074512 -1.579572 -6.274610 0.000000 0.000000 0.000000 -12.958775 -22.592882 19.025699 -27.623133 -38.765883 -9.887199 -12.032230 -22.139694 -26.771448 0.000000 0.000000 0.000000 7.125000 0.000000 0.000000 10.758646 3.104591 10.347052
8.325440 14.973710 -0.707144 715.467003 80.065113 734.258716 0.000000 0.000000 0.000000 -9.041584 -2.636710 -60.600103 9.334628 17.018289 57.240269 0.565152 -7.241254 -13.562216 0.003836 -0.399259 -1.096971 0.000000 0.000000 0.000000 10.420145 2.096722 -39.557913 -9.892924 -17.349228 59.129885 -4.488834 1.627147 -39.891224 -0.985425 6.317583 -17.709044 -4.800705 3.001019 17.097214 -0.445074 3.176391 2.982665 1.519620 1.694847 -6.598878 4.083951 1.571600 -14.608584 -7.571723 2.296534 9.465490 -2.847703 0.740873 5.378526 0.000000 0.000000 0.000000 19.653094 -22.316697 -30.296596 43.085190 -49.794502 20.765977 20.141923 -39.070584 29.668243 0.000000 0.000000 0.000000 -7.125000 0.000000 0.000000 -6.239392 -1.104088 -6.396201 0.000000 0.000000 0.000000 -11.511912 -21.057991 18.876364 -29.025731 -40.042844 -10.777504 -11.400701 -22.930384 -26.982504 0.000000 0.000000 0.000000 7.125000 0.000000 0.000000 11.145854 2.976926 10.760526
8.427385 14.979782 -0.818332 713.622007 79.864849 732.637776 0.000000 0.000000 0.000000 -9.189181 -2.566270 -60.767930 9.505228 17.122083 57.821460 0.636634 -7.317242 -14.350860 0.008478 -0.593631 -1.631255 0.000000 0.000000 0.000000 10.257452 1.994643 -39.239546 -9.773297 -17.280403 58.727977 -4.477360 2.206910 -39.701907 -0.917679 6.103418 -17.084786 -4.758656 2.958024 16.859393 -0.526268 3.136404 3.007134 1.430024 1.671133 -6.434101 4.125541 1.763295 -14.602305 -7.705697 2.577390 9.667346 -2.873067 0.867343 5.460601 0.000000 0.000000 0.000000 19.505189 -23.194610 -30.495366 40.457270 -48.338091 18.780248 19.836916 -38.347487 29.859851 0.000000 0.000000 0.000000 -7.125000 0.000000 0.000000 -6.439603 -1.240702 -6.619141 0.000000 0.000000 0.000000 -10.044294 -19.330548 19.006778 -31.051350 -41.776475 -12.104454 -11.640943 -24.092852 -27.438458 0.000000 0.000000 0.000000 7.125000 0.000000 0.000000 11.027467 2.495643 10.740190
8.506353 14.968470 -0.896324 711.506264 79.708176 730.593970 0.000000 0.000000 0.000000 -8.985313 -2.667189 -60.836567 9.713558 17.245574 58.526731 0.711979 -7.304298 -15.132810 0.003404 -0.374588 -1.029160 0.000000 0.000000 0.000000 10.324055 1.947378 -38.792997 -9.647024 -17.206535 58.301912 -4.457513 2.358955 -39.575686 -0.862939 5.923581 -16.562754 -4.915104 2.884493 17.040736 -0.460081 2.998511 2.887491 1.609139 1.611730 -6.663966 4.197001 1.999832 -14.209431 -8.049001 2.924978 9.407936 -2.961301 1.028554 5.343349 0.000000 0.000000 0.000000 19.166479 -23.263609 -30.514445 38.452536 -47.125666 17.296545 19.796459 -37.839251 30.078342 0.000000 0.000000 0.000000 -7.125000 0.000000 0.000000 -6.489767 -1.455104 -6.695107 0.000000 0.000000 0.000000 -9.090560 -16.311428 20.515305 -35.521191 -45.179676 -15.182171 -11.755213 -24.698900 -26.721985 0.000000 0.000000 0.000000 7.125000 0.000000 0.000000 10.921314 3.189254 10.492159
8.566590 14.948727 -0.949696 709.537242 79.634163 728.726319 0.000000 0.000000 0.000000 -8.762019 -2.598815 -61.101182 9.929060 17.369775 59.250951 0.751212 -7.588434 -15.557758 0.000498 -0.139102 -0.382161 0.000000 0.000000 0.000000 10.499768 2.128852 -38.579317 -9.632262 -17.197789 58.251940 -4.461317 1.698714 -39.747044 -1.051421 6.520183 -18.301429 -4.977157 2.747300 17.047143 -0.500299 2.801259 2.835086 1.645310 1.518336 -6.711114 4.350198 2.111308 -14.207076 -8.031555 3.026082 9.172713 -2.970532 1.087369 5.277929 0.000000 0.000000 0.000000 19.117155 -23.117039 -30.634611 37.368758 -46.431348 16.506690 19.877302 -37.664044 29.915565 0.000000 0.000000 0.000000 -7.125000 0.000000 0.000000 -6.423064 -1.305134 -6.609044 0.000000 0.000000 0.000000 -8.141841 -14.293587 21.759178 -39.138044 -47.550337 -17.800706 -11.866635 -25.358980 -27.197088 0.000000 0.000000 0.000000 7.125000 0.000000 0.000000 10.880261 2.704832 10.549319
8.615937 14.942928 -0.991239 709.241725 78.995799 728.706326 0.000000 0.000000 0.000000 -8.842798 -2.221982 -61.401227 10.060033 17.443472 59.688806 0.804939 -7.576975 -16.080610 0.000858 -0.178159 -0.489555 0.000000 0.000000 0.000000 10.324696 2.593232 -38.655432 -9.607398 -17.183087 58.167903 -4.460577 1.623435 -39.761884 -1.129032 6.748811 -18.973378 -5.414657 2.907232 16.794673 -0.647497 2.933768 2.783856 1.712395 1.589403 -6.651256 4.468822 2.092490 -14.514755 -8.009118 2.974865 9.349107 -2.987881 1.058463 5.381762 0.000000 0.000000 0.000000 18.796101 -22.881516 -30.958477 36.900772 -46.122596 16.168473 20.081480 -37.577197 29.951388 0.000000 0.000000 0.000000 -7.125000 0.000000 0.000000 -6.309506 -1.380714 -6.498866 0.000000 0.000000 0.000000 -7.491451 -12.986758 22.427285 -42.326994 -49.389416 -20.188509 -11.251557 -25.215960 -26.948439 0.000000 0.000000 0.000000 7.125000 0.000000 0.000000 11.232759 3.029521 10.836833
8.645677 14.947661 -1.023248 707.622539 78.875372 727.107726 0.000000 0.000000 0.000000 -8.629465 -2.100336 -61.340172 10.090432 17.460416 59.790294 0.820087 -7.630004 -16.231024 0.000009 -0.016513 -0.045437 0.000000 0.000000 0.000000 10.584068 2.627678 -38.306999 -9.477713 -17.105446 57.727923 -4.445727 1.504076 -39.722351 -1.154477 6.821883 -19.188744 -5.122628 2.792798 16.900749 -0.774799 2.815418 2.703019 1.432866 1.526610 -6.767623 4.432131 2.171204 -14.370031 -7.999410 3.076164 9.105124 -2.968545 1.113719 5.287697 0.000000 0.000000 0.000000 18.578195 -21.975534 -31.311159 37.165941 -46.298246 16.359933 19.651777 -37.004523 29.745640 0.000000 0.000000 0.000000 -7.125000 0.000000 0.000000 -6.532815 -1.089390 -6.699230 0.000000 0.000000 0.000000 -6.956274 -11.687561 23.527940 -45.751924 -51.131573 -22.822756 -11.805757 -25.333814 -26.968422 0.000000 0.000000 0.000000 7.125000 0.000000 0.000000 10.904230 2.939007 10.525996
8.666589 14.943105 -1.037908 709.197289 78.952865 728.725815 0.000000 0.000000 0.000000 -9.046295 -2.266987 -61.333645 10.112825 17.472824 59.864658 0.843643 -7.712969 -16.462697 0.000197 0.084552 0.232399 0.000000 0.000000 0.000000 10.171159 2.334706 -38.396645 -9.493660 -17.115118 57.782227 -4.444389 1.578008 -39.698097 -1.179596 6.893213 -19.399389 -5.492968 2.767877 16.937048 -0.920565 2.698463 2.602152 1.508174 1.480581 -6.897656 4.203574 2.071189 -14.653169 -7.702079 2.955688 9.381422 -2.848272 1.056897 5.404301 0.000000 0.000000 0.000000 18.201795 -21.069705 -32.115262 37.321124 -46.400216 16.472197 19.845915 -36.902313 29.920382 0.000000 0.000000 0.000000 -7.125000 0.000000 0.000000 -6.441734 -1.303945 -6.628335 0.000000 0.000000 0.000000 -6.905892 -11.123775 23.881859 -48.118801 -52.207913 -24.679600 -11.573146 -24.938869 -26.848880 0.000000 0.000000 0.000000 7.125000 0.000000 0.000000 11.036382 3.087027 10.628053
8.675260 14.942256 -1.037626 706.659760 79.514179 725.957245 0.000000 0.000000 0.000000 -8.500538 -2.592034 -61.092155 10.124013 17.478973 59.902040 0.823174 -7.796073 -16.276718 0.000030 0.041953 0.115185 0.000000 0.000000 0.000000 10.802138 1.844053 -37.922588 -9.415691 -17.067954 57.517011 -4.463445 1.597153 -39.781512 -1.134634 6.764904 -19.020703 -4.785740 2.595522 17.207688 -0.842015 2.592064 2.630075 1.209343 1.414374 -6.981167 4.124436 1.990887 -14.399160 -7.582249 2.829313 8.964387 -2.807120 1.011831 5.221071 0.000000 0.000000 0.000000 17.709801 -20.424429 -33.026612 37.203936 -46.323237 16.387372 19.578709 -36.790118 29.842362 0.000000 0.000000 0.000000 -7.125000 0.000000 0.000000 -6.586804 -1.173868 -6.764814 0.000000 0.000000 0.000000 -7.025924 -10.816282 24.330314 -51.053326 -53.411487 -27.017617 -11.136271 -24.789416 -26.243994 0.000000 0.000000 0.000000 7.125000 0.000000 0.000000 11.268208 3.739403 10.722476
